# xmcd
#
# Track frame offsets:
#	150
#	18857
#	36522
#	55070
#	71587
#	92442
#	108360
#	128792
#	156002
#	176765
#	198460
#	220677
#
# Disc length: 3176 seconds
#
# Revision: 4206789633
# Processed by: cddbd v1.5.2PL0 Copyright (c) Steve Scherf et al.
# Submitted via: EZCDAudioConverter 8.5.0.1
#
DISCID=9e0c660c
DTITLE=Ilse Delange - Livin' On Love
DYEAR=2000
DGENRE=Pop/Nederpop/Country
TTITLE0=Good Thing - (2000)
TTITLE1=Naked Heart - (2000)
TTITLE2=Ride The Wind To Me - (2000)
TTITLE3=Breathin' - (2000)
TTITLE4=I Still Cry - (2000)
TTITLE5=Beyond Gravity - (2000)
TTITLE6=Livin' On Love - (2000)
TTITLE7=Peaceful In Mine - (2000)
TTITLE8=When You Put It Like That - (2000)
TTITLE9=Always Overcome - (2000)
TTITLE10=Breathe In, Breathe Out - (2000)
TTITLE11=Everywhere I Go - (2000)
EXTD=
EXTT0=
EXTT1=
EXTT2=
EXTT3=
EXTT4=
EXTT5=
EXTT6=
EXTT7=
EXTT8=
EXTT9=
EXTT10=
EXTT11=
PLAYORDER=
